<?xml version="1.0" encoding="iso-8859-1"?>
<!-- Generator: Adobe Illustrator 19.0.0, SVG Export Plug-In . SVG Version: 6.00 Build 0)  -->
<svg xmlns="http://www.w3.org/2000/svg" xmlns:xlink="http://www.w3.org/1999/xlink" version="1.1" id="Capa_1" x="0px" y="0px" viewBox="0 0 423.253 423.253" style="enable-background:new 0 0 423.253 423.253;" xml:space="preserve" width="512px" height="512px">
<g>
	<g>
		<path d="M266.3,61.44H156.954c-11.261,0-20.42,9.16-20.42,20.42v252.706c0,11.261,9.16,20.42,20.42,20.42H266.3    c11.261,0,20.42-9.16,20.42-20.42V81.86C286.72,70.6,277.56,61.44,266.3,61.44z M273.067,334.566c0,3.731-3.033,6.767-6.767,6.767    H156.954c-3.734,0-6.767-3.036-6.767-6.767V81.86c0-3.731,3.033-6.767,6.767-6.767H266.3c3.734,0,6.767,3.036,6.767,6.767V334.566    z" fill="#FFFFFF"/>
	</g>
</g>
<g>
	<g>
		<path d="M279.893,88.747H143.36c-3.773,0-6.827,3.057-6.827,6.827v197.973c0,3.77,3.053,6.827,6.827,6.827h136.533    c3.773,0,6.827-3.057,6.827-6.827V95.573C286.72,91.803,283.667,88.747,279.893,88.747z M273.067,286.72h-122.88V102.4h122.88    V286.72z" fill="#FFFFFF"/>
	</g>
</g>
<g>
	<g>
		<path d="M211.627,307.84c-7.526,0-13.653,6.03-13.653,13.44s6.127,13.44,13.653,13.44s13.653-6.03,13.653-13.44    S219.153,307.84,211.627,307.84z M211.627,321.28l0.08,0.23C211.68,321.487,211.627,321.389,211.627,321.28z" fill="#FFFFFF"/>
	</g>
</g>
<g>
	<g>
		<path d="M211.627,0C94.933,0,0,94.937,0,211.627s94.933,211.627,211.627,211.627s211.627-94.937,211.627-211.627    S328.32,0,211.627,0z M211.627,409.6c-109.16,0-197.973-88.81-197.973-197.973S102.467,13.653,211.627,13.653    S409.6,102.463,409.6,211.627S320.787,409.6,211.627,409.6z" fill="#FFFFFF"/>
	</g>
</g>
<g>
	<g>
		<path d="M356.4,60.027c-2.666-2.666-6.987-2.666-9.653,0l-286.72,286.72c-2.666,2.666-2.666,6.987,0,9.653    c1.333,1.333,3.081,2,4.826,2c1.746,0,3.494-0.667,4.826-2L356.4,69.68C359.066,67.014,359.066,62.693,356.4,60.027z" fill="#FFFFFF"/>
	</g>
</g>
<g>
</g>
<g>
</g>
<g>
</g>
<g>
</g>
<g>
</g>
<g>
</g>
<g>
</g>
<g>
</g>
<g>
</g>
<g>
</g>
<g>
</g>
<g>
</g>
<g>
</g>
<g>
</g>
<g>
</g>
</svg>
