<?xml version="1.0" encoding="iso-8859-1"?>
<!-- Generator: Adobe Illustrator 19.0.0, SVG Export Plug-In . SVG Version: 6.00 Build 0)  -->
<svg version="1.1" id="Capa_1" xmlns="http://www.w3.org/2000/svg" xmlns:xlink="http://www.w3.org/1999/xlink" x="0px" y="0px"
	 viewBox="0 0 463.899 463.899" style="enable-background:new 0 0 463.899 463.899;" xml:space="preserve">
<g>
	<path style="fill:#4398D1;" d="M168.098,319.91c2.122,0,4.156-0.844,5.656-2.344l32-32c3.07-3.178,2.982-8.242-0.196-11.312
		c-3.1-2.994-8.015-2.994-11.116,0l-32,32c-3.124,3.125-3.123,8.19,0.002,11.314C163.944,319.068,165.977,319.91,168.098,319.91
		L168.098,319.91z"/>
	<path style="fill:#4398D1;" d="M141.754,338.254c-3.124-3.123-8.188-3.123-11.312,0l-32,32c-3.178,3.069-3.266,8.134-0.196,11.312
		c3.069,3.178,8.134,3.266,11.312,0.196c0.067-0.064,0.132-0.13,0.196-0.196l32-32C144.877,346.442,144.877,341.378,141.754,338.254
		z"/>
	<path style="fill:#4398D1;" d="M66.442,402.254l-32,32c-3.178,3.07-3.266,8.134-0.196,11.312s8.134,3.266,11.312,0.196
		c0.067-0.064,0.132-0.13,0.196-0.196l32-32c3.069-3.178,2.982-8.242-0.196-11.312C74.458,399.26,69.542,399.26,66.442,402.254z"/>
	<path style="fill:#4398D1;" d="M72.098,319.91c2.122,0,4.156-0.844,5.656-2.344l32-32c3.07-3.178,2.982-8.242-0.196-11.312
		c-3.1-2.994-8.015-2.994-11.116,0l-32,32c-3.124,3.125-3.123,8.19,0.002,11.314C67.944,319.067,69.977,319.91,72.098,319.91z"/>
	<path style="fill:#4398D1;" d="M45.754,338.254c-3.124-3.123-8.188-3.123-11.312,0l-32,32c-3.178,3.07-3.266,8.134-0.196,11.312
		s8.134,3.266,11.312,0.196c0.067-0.064,0.132-0.13,0.196-0.196l32-32C48.877,346.442,48.877,341.378,45.754,338.254z"/>
	<path style="fill:#4398D1;" d="M264.098,319.91c2.122,0,4.156-0.844,5.656-2.344l32-32c3.07-3.178,2.982-8.242-0.196-11.312
		c-3.1-2.995-8.016-2.995-11.116,0l-32,32c-3.124,3.125-3.123,8.19,0.002,11.314C259.944,319.068,261.977,319.91,264.098,319.91z"/>
	<path style="fill:#4398D1;" d="M237.754,338.254c-3.124-3.123-8.188-3.123-11.312,0l-32,32c-3.178,3.069-3.266,8.134-0.196,11.312
		c3.069,3.178,8.134,3.266,11.312,0.196c0.067-0.064,0.132-0.13,0.196-0.196l32-32C240.877,346.442,240.877,341.378,237.754,338.254
		z"/>
	<path style="fill:#4398D1;" d="M162.442,402.254l-32,32c-3.178,3.069-3.266,8.134-0.196,11.312
		c3.069,3.178,8.134,3.266,11.312,0.196c0.067-0.064,0.132-0.13,0.196-0.196l32-32c3.07-3.178,2.982-8.242-0.196-11.312
		C170.458,399.26,165.542,399.26,162.442,402.254z"/>
	<path style="fill:#4398D1;" d="M397.754,274.254c-3.124-3.123-8.188-3.123-11.312,0l-32,32c-3.178,3.07-3.266,8.134-0.196,11.312
		c3.07,3.178,8.134,3.266,11.312,0.196c0.066-0.064,0.132-0.129,0.196-0.196l32-32C400.877,282.442,400.877,277.378,397.754,274.254
		z"/>
	<path style="fill:#4398D1;" d="M322.442,338.254l-32,32c-3.178,3.07-3.266,8.134-0.196,11.312c3.07,3.178,8.134,3.266,11.312,0.196
		c0.066-0.064,0.132-0.129,0.196-0.196l32-32c3.07-3.178,2.982-8.242-0.196-11.312C330.458,335.26,325.542,335.26,322.442,338.254z"
		/>
	<path style="fill:#4398D1;" d="M258.442,402.254l-32,32c-3.178,3.07-3.266,8.134-0.196,11.312c3.07,3.178,8.134,3.266,11.312,0.196
		c0.066-0.064,0.132-0.129,0.196-0.196l32-32c3.07-3.178,2.982-8.242-0.196-11.312C266.458,399.26,261.542,399.26,258.442,402.254z"
		/>
</g>
<path style="fill:#DEDEDE;" d="M422.346,137.806l0.04-0.224c0.48-2.184,0.864-4.392,1.136-6.648
	c0.048-0.328,0.096-0.656,0.136-0.992c0.28-2.473,0.427-4.959,0.44-7.448c0.388-38.176-30.245-69.439-68.422-69.827
	c-20.749-0.211-40.495,8.91-53.786,24.843c-10.108-42.957-53.125-69.586-96.082-59.478c-25.958,6.108-47.158,24.763-56.518,49.734
	l-0.04,0.096l-0.192,0.52l-0.04,0.12c-0.757,2.08-1.435,4.213-2.032,6.4l-0.064,0.2l-0.08,0.32c0,0.104,0,0.216-0.072,0.32
	c-0.568,2.176-1.048,4.376-1.432,6.616l-0.048,0.2v0.152c0,0.128,0,0.256-0.04,0.376c-0.376,2.32-0.664,4.664-0.8,7.048v0.096
	c-25.193-17.894-60.122-11.977-78.017,13.216c-6.736,9.484-10.349,20.831-10.335,32.464c-30.928,0-56,25.072-56,56s25.072,56,56,56
	h352c30.928-0.11,55.91-25.271,55.8-56.199C463.809,166.422,446.78,144.331,422.346,137.806L422.346,137.806z"/>
<path style="fill:#CFCFCF;" d="M422.346,137.806l0.04-0.224c0.48-2.184,0.864-4.392,1.136-6.648
	c0.048-0.328,0.096-0.656,0.136-0.992c0.28-2.473,0.427-4.959,0.44-7.448c-0.054-20.138-8.673-39.302-23.704-52.704
	c-55.44,109.432-174.928,157.272-266.088,178.12h273.792c30.928-0.11,55.91-25.271,55.801-56.199
	C463.809,166.422,446.78,144.331,422.346,137.806L422.346,137.806z"/>
<g>
</g>
<g>
</g>
<g>
</g>
<g>
</g>
<g>
</g>
<g>
</g>
<g>
</g>
<g>
</g>
<g>
</g>
<g>
</g>
<g>
</g>
<g>
</g>
<g>
</g>
<g>
</g>
<g>
</g>
</svg>
