<?xml version="1.0" encoding="iso-8859-1"?>
<!-- Generator: Adobe Illustrator 19.0.0, SVG Export Plug-In . SVG Version: 6.00 Build 0)  -->
<svg version="1.1" id="Capa_1" xmlns="http://www.w3.org/2000/svg" xmlns:xlink="http://www.w3.org/1999/xlink" x="0px" y="0px"
	 viewBox="0 0 480 480" style="enable-background:new 0 0 480 480;" xml:space="preserve">
<g>
	<circle style="fill:#FFD33F;" cx="148.12" cy="144" r="88"/>
	<path style="fill:#FFD33F;" d="M148.117,32c-4.418,0-8-3.582-8-8V8c0-4.418,3.582-8,8-8s8,3.582,8,8v16
		C156.117,28.418,152.535,32,148.117,32z"/>
	<path style="fill:#FFD33F;" d="M63.269,67.152c-2.122,0-4.156-0.844-5.656-2.344l-11.32-11.32
		c-3.124-3.126-3.122-8.192,0.004-11.316c3.126-3.124,8.192-3.122,11.316,0.004l11.304,11.32c3.124,3.125,3.123,8.19-0.002,11.314
		c-1.5,1.499-3.534,2.342-5.654,2.342H63.269z"/>
	<path style="fill:#FFD33F;" d="M28.117,152h-16c-4.418,0-8-3.582-8-8s3.582-8,8-8h16c4.418,0,8,3.582,8,8S32.535,152,28.117,152z"
		/>
	<path style="fill:#FFD33F;" d="M51.949,248.168c-4.418-0.001-7.999-3.583-7.998-8.002c0-2.121,0.843-4.154,2.342-5.654
		l11.32-11.312c3.251-2.992,8.312-2.782,11.304,0.469c2.818,3.062,2.818,7.773,0,10.835l-11.304,11.32
		C56.111,247.326,54.073,248.17,51.949,248.168z"/>
	<path style="fill:#FFD33F;" d="M232.965,67.152c-4.418-0.005-7.996-3.591-7.99-8.01c0.003-2.118,0.845-4.148,2.342-5.646
		l11.312-11.32c3.124-3.126,8.19-3.128,11.316-0.004c3.126,3.124,3.128,8.19,0.004,11.316L238.621,64.8
		C237.122,66.303,235.087,67.149,232.965,67.152L232.965,67.152z"/>
</g>
<path style="fill:#CBCFD3;" d="M436.117,208.712c0-0.24,0.04-0.472,0.04-0.712c0.058-44.121-35.662-79.935-79.783-79.993
	c-5.175-0.007-10.338,0.489-15.417,1.481c-34.44-40.2-94.948-44.869-135.148-10.429c-17.266,14.792-28.711,35.24-32.292,57.693
	c-3.111-0.477-6.253-0.729-9.4-0.752c-35.346,0.017-63.986,28.685-63.969,64.031c0.017,35.322,28.647,63.952,63.969,63.969h264
	c26.509-0.129,47.895-21.724,47.766-48.233C475.77,232.522,459.017,212.699,436.117,208.712L436.117,208.712z"/>
<g>
	<path style="fill:#1598FC;" d="M164.117,360c-4.418,0-8-3.582-8-8v-16c0-4.418,3.582-8,8-8s8,3.582,8,8v16
		C172.117,356.418,168.535,360,164.117,360z"/>
	<path style="fill:#1598FC;" d="M196.117,384c-4.418,0-8-3.582-8-8v-16c0-4.418,3.582-8,8-8s8,3.582,8,8v16
		C204.117,380.418,200.535,384,196.117,384z"/>
	<path style="fill:#1598FC;" d="M228.117,360c-4.418,0-8-3.582-8-8v-16c0-4.418,3.582-8,8-8s8,3.582,8,8v16
		C236.117,356.418,232.535,360,228.117,360z"/>
	<path style="fill:#1598FC;" d="M260.117,384c-4.418,0-8-3.582-8-8v-16c0-4.418,3.582-8,8-8s8,3.582,8,8v16
		C268.117,380.418,264.535,384,260.117,384z"/>
	<path style="fill:#1598FC;" d="M324.117,384c-4.418,0-8-3.582-8-8v-16c0-4.418,3.582-8,8-8s8,3.582,8,8v16
		C332.117,380.418,328.535,384,324.117,384z"/>
	<path style="fill:#1598FC;" d="M292.117,360c-4.418,0-8-3.582-8-8v-16c0-4.418,3.582-8,8-8s8,3.582,8,8v16
		C300.117,356.418,296.535,360,292.117,360z"/>
	<path style="fill:#1598FC;" d="M388.117,384c-4.418,0-8-3.582-8-8v-16c0-4.418,3.582-8,8-8s8,3.582,8,8v16
		C396.117,380.418,392.535,384,388.117,384z"/>
	<path style="fill:#1598FC;" d="M356.117,360c-4.418,0-8-3.582-8-8v-16c0-4.418,3.582-8,8-8s8,3.582,8,8v16
		C364.117,356.418,360.535,360,356.117,360z"/>
	<path style="fill:#1598FC;" d="M420.117,360c-4.418,0-8-3.582-8-8v-16c0-4.418,3.582-8,8-8s8,3.582,8,8v16
		C428.117,356.418,424.535,360,420.117,360z"/>
	<path style="fill:#1598FC;" d="M164.117,408c-4.418,0-8-3.582-8-8v-16c0-4.418,3.582-8,8-8s8,3.582,8,8v16
		C172.117,404.418,168.535,408,164.117,408z"/>
	<path style="fill:#1598FC;" d="M196.117,432c-4.418,0-8-3.582-8-8v-16c0-4.418,3.582-8,8-8s8,3.582,8,8v16
		C204.117,428.418,200.535,432,196.117,432z"/>
	<path style="fill:#1598FC;" d="M228.117,408c-4.418,0-8-3.582-8-8v-16c0-4.418,3.582-8,8-8s8,3.582,8,8v16
		C236.117,404.418,232.535,408,228.117,408z"/>
	<path style="fill:#1598FC;" d="M260.117,432c-4.418,0-8-3.582-8-8v-16c0-4.418,3.582-8,8-8s8,3.582,8,8v16
		C268.117,428.418,264.535,432,260.117,432z"/>
	<path style="fill:#1598FC;" d="M324.117,432c-4.418,0-8-3.582-8-8v-16c0-4.418,3.582-8,8-8s8,3.582,8,8v16
		C332.117,428.418,328.535,432,324.117,432z"/>
	<path style="fill:#1598FC;" d="M292.117,408c-4.418,0-8-3.582-8-8v-16c0-4.418,3.582-8,8-8s8,3.582,8,8v16
		C300.117,404.418,296.535,408,292.117,408z"/>
	<path style="fill:#1598FC;" d="M388.117,432c-4.418,0-8-3.582-8-8v-16c0-4.418,3.582-8,8-8s8,3.582,8,8v16
		C396.117,428.418,392.535,432,388.117,432z"/>
	<path style="fill:#1598FC;" d="M356.117,408c-4.418,0-8-3.582-8-8v-16c0-4.418,3.582-8,8-8s8,3.582,8,8v16
		C364.117,404.418,360.535,408,356.117,408z"/>
	<path style="fill:#1598FC;" d="M420.117,408c-4.418,0-8-3.582-8-8v-16c0-4.418,3.582-8,8-8s8,3.582,8,8v16
		C428.117,404.418,424.535,408,420.117,408z"/>
	<path style="fill:#1598FC;" d="M164.117,456c-4.418,0-8-3.582-8-8v-16c0-4.418,3.582-8,8-8s8,3.582,8,8v16
		C172.117,452.418,168.535,456,164.117,456z"/>
	<path style="fill:#1598FC;" d="M196.117,480c-4.418,0-8-3.582-8-8v-16c0-4.418,3.582-8,8-8s8,3.582,8,8v16
		C204.117,476.418,200.535,480,196.117,480z"/>
	<path style="fill:#1598FC;" d="M228.117,456c-4.418,0-8-3.582-8-8v-16c0-4.418,3.582-8,8-8s8,3.582,8,8v16
		C236.117,452.418,232.535,456,228.117,456z"/>
	<path style="fill:#1598FC;" d="M260.117,480c-4.418,0-8-3.582-8-8v-16c0-4.418,3.582-8,8-8s8,3.582,8,8v16
		C268.117,476.418,264.535,480,260.117,480z"/>
	<path style="fill:#1598FC;" d="M324.117,480c-4.418,0-8-3.582-8-8v-16c0-4.418,3.582-8,8-8s8,3.582,8,8v16
		C332.117,476.418,328.535,480,324.117,480z"/>
	<path style="fill:#1598FC;" d="M292.117,456c-4.418,0-8-3.582-8-8v-16c0-4.418,3.582-8,8-8s8,3.582,8,8v16
		C300.117,452.418,296.535,456,292.117,456z"/>
	<path style="fill:#1598FC;" d="M388.117,480c-4.418,0-8-3.582-8-8v-16c0-4.418,3.582-8,8-8s8,3.582,8,8v16
		C396.117,476.418,392.535,480,388.117,480z"/>
	<path style="fill:#1598FC;" d="M356.117,456c-4.418,0-8-3.582-8-8v-16c0-4.418,3.582-8,8-8s8,3.582,8,8v16
		C364.117,452.418,360.535,456,356.117,456z"/>
	<path style="fill:#1598FC;" d="M420.117,456c-4.418,0-8-3.582-8-8v-16c0-4.418,3.582-8,8-8s8,3.582,8,8v16
		C428.117,452.418,424.535,456,420.117,456z"/>
</g>
<g>
</g>
<g>
</g>
<g>
</g>
<g>
</g>
<g>
</g>
<g>
</g>
<g>
</g>
<g>
</g>
<g>
</g>
<g>
</g>
<g>
</g>
<g>
</g>
<g>
</g>
<g>
</g>
<g>
</g>
</svg>
